<svg viewBox="103.736 254.686 210.286 203.876" xmlns="http://www.w3.org/2000/svg" xmlns:bx="https://boxy-svg.com">
  <defs>
    <style bx:fonts="Yanone Kaffeesatz" bx:pinned="true">@import url(https://fonts.googleapis.com/css2?family=Yanone+Kaffeesatz%3Aital%2Cwght%400%2C200..700&amp;display=swap);</style>
    <style bx:fonts="Lobster" bx:pinned="true">@import url(https://fonts.googleapis.com/css2?family=Lobster%3Aital%2Cwght%400%2C400&amp;display=swap);</style>
    <style bx:fonts="Cinzel" bx:pinned="true">@import url(https://fonts.googleapis.com/css2?family=Cinzel%3Aital%2Cwght%400%2C400..900&amp;display=swap);</style>
    <style bx:fonts="Clicker Script" bx:pinned="true">@import url(https://fonts.googleapis.com/css2?family=Clicker+Script%3Aital%2Cwght%400%2C400&amp;display=swap);</style>
    <style bx:fonts="Climate Crisis" bx:pinned="true">@import url(https://fonts.googleapis.com/css2?family=Climate+Crisis%3Aital%2Cwght%400%2C400&amp;display=swap);</style>
    <style bx:fonts="Doppio One" bx:pinned="true">@import url(https://fonts.googleapis.com/css2?family=Doppio+One%3Aital%2Cwght%400%2C400&amp;display=swap);</style>
    <style bx:fonts="Ewert" bx:pinned="true">@import url(https://fonts.googleapis.com/css2?family=Ewert%3Aital%2Cwght%400%2C400&amp;display=swap);</style>
    <style bx:fonts="Galada" bx:pinned="true">@import url(https://fonts.googleapis.com/css2?family=Galada%3Aital%2Cwght%400%2C400&amp;display=swap);</style>
    <style bx:fonts="Monoton" bx:pinned="true">@import url(https://fonts.googleapis.com/css2?family=Monoton%3Aital%2Cwght%400%2C400&amp;display=swap);</style>
    <style bx:fonts="Ubuntu" bx:pinned="true">@import url(https://fonts.googleapis.com/css2?family=Ubuntu%3Aital%2Cwght%400%2C300%3B0%2C400%3B0%2C500%3B0%2C700%3B1%2C300%3B1%2C400%3B1%2C500%3B1%2C700&amp;display=swap);</style>
    <style bx:fonts="Ultra" bx:pinned="true">@import url(https://fonts.googleapis.com/css2?family=Ultra%3Aital%2Cwght%400%2C400&amp;display=swap);</style>
    <style bx:fonts="Vibur" bx:pinned="true">@import url(https://fonts.googleapis.com/css2?family=Vibur%3Aital%2Cwght%400%2C400&amp;display=swap);</style>
    <style bx:fonts="Coda" bx:pinned="true">@import url(https://fonts.googleapis.com/css2?family=Coda%3Aital%2Cwght%400%2C400%3B0%2C800&amp;display=swap);</style>
  </defs>
  <g transform="matrix(0, 0.628183, -1.000003, 0, 98.994821, 226.245517)" style="transform-origin: 128.107px 127.998px;">
    <g>
      <g>
        <path fill="#FFFFFF" d="M 172.704 90.051 C 172.177 90.365 171.659 90.705 171.146 91.048 C 171.143 91.05 171.139 91.051 171.136 91.053 C 171.654 90.706 172.177 90.363 172.709 90.046 C 172.707 90.048 172.705 90.049 172.703 90.051 L 172.704 90.051 Z"></path>
        <path fill="#FFFFFF" d="M 105.257 89.45 C 105.085 89.618 104.87 89.773 104.632 89.918 C 104.628 89.92 104.625 89.922 104.621 89.923 C 104.673 89.891 104.725 89.859 104.774 89.827 C 104.87 89.764 104.96 89.7 105.045 89.633 C 105.087 89.6 105.128 89.566 105.167 89.532 C 105.186 89.515 105.205 89.497 105.224 89.48 C 105.234 89.472 105.243 89.463 105.252 89.454 C 105.254 89.453 105.255 89.451 105.257 89.45 Z"></path>
        <path fill="#FFFFFF" d="M 105.259 89.448 C 105.258 89.449 105.258 89.449 105.257 89.45 C 105.258 89.449 105.259 89.449 105.259 89.448 Z"></path>
        <path fill="#FFFFFF" d="M 105.3 89.601 C 105.3 89.601 108.986 93.476 110.786 92.976 C 115.286 91.676 123.438 90.676 127.883 92.618 C 137.88 96.986 145.542 100.879 149.642 107.979 C 150.142 108.979 151.2 106.901 151.3 106.901 C 151.4 106.901 152.3 105.701 153.3 104.301 C 155.6 100.901 160.3 96.301 163.6 94.201 C 163.834 94.052 164.053 93.911 164.255 93.775 C 165.071 93.797 165.961 93.94 166.689 93.669 C 168.166 93.118 169.631 92.064 171.146 91.048 C 171.728 90.756 172.26 90.428 172.704 90.051 C 173.116 89.805 173.532 89.575 173.955 89.37 C 174.317 89.534 175.192 89.313 177.3 88.801 C 181.1 87.801 189.1 87.801 193.3 88.801 C 212.3 93.101 221.404 114.158 219.104 132.758 C 218.804 135.258 222.6 135.001 222.4 135.701 C 222.2 136.701 222.5 137.001 225.3 138.701 C 232.8 143.101 236.848 157.418 240.448 168.418 C 242.748 175.418 245.6 173.201 245.9 185.701 L 244.631 196.984 L 237.586 197.696 L 16.179 197.733 L 17.621 192.942 C 15.021 190.242 9.2 180.701 11 172.501 C 14.2 157.801 24.1 146.401 36 144.001 L 39.1 143.401 L 39 138.901 C 38.8 133.001 39.8 128.301 42.3 123.201 C 44 119.801 49.552 121.612 53.352 117.912 C 58.452 112.812 54.459 101.169 60.359 99.769 C 64.959 98.769 63.572 93.769 67.672 95.269 C 69.272 95.869 72.797 97.783 72.897 97.683 C 72.897 97.683 71.772 94.769 72.772 93.169 C 74.972 89.969 72.485 92.419 95.5 94.801 C 96.631 94.918 98.583 96.07 98.82 95.311 C 99.602 94.94 98.751 92.413 99.297 92.202 C 99.822 91.998 100.381 91.847 100.89 91.627 C 101.531 91.35 94.557 92.054 95.181 91.762 C 95.761 91.491 104.08 90.254 104.632 89.918 C 105.028 89.726 105.281 89.601 105.3 89.601 Z M 77.372 99.968 C 74.372 105.268 73.772 105.368 68.572 103.268 C 62.872 100.868 60.709 104.988 56.009 105.988 C 50.609 106.988 50.636 119.765 46.436 123.865 C 41.336 128.865 47.1 128.7 46.8 134.9 C 46.7 138.5 46.8 140 47.7 143.3 C 49.1 148.5 49.1 150.4 47.7 151.5 C 46.3 152.6 44.5 152.6 42.5 151.4 C 40.6 150.2 40.473 144.651 36.973 145.851 C 27.673 149.051 17.897 159.362 15.897 171.662 C 15.297 175.262 17.7 189.8 18.4 191.5 C 18.7 192.4 15.471 194.285 119.771 194.285 L 238.7 192.4 L 238.5 182.5 C 238.2 171.6 237.6 168.4 234.6 161.4 C 230.4 151.7 225.1 145.8 218.2 143.2 C 214.2 141.6 213.3 140.5 214.2 137.5 C 217.3 126.7 216.6 118.3 212 110.6 C 207.9 103.8 209.575 99.336 202.175 96.736 C 198.475 95.436 190.1 95.2 185.2 95.2 C 180.6 95.2 179.1 92.267 175.9 93.267 C 168.6 95.767 158.828 102.085 154.828 108.685 C 153.628 110.685 156.1 114.2 155.7 114.9 C 155.1 115.8 155 116.6 155.2 117.8 C 156.204 122.361 156.208 127.755 155.214 133.527 C 153.948 133.072 152.673 132.639 151.363 132.299 C 151.462 129.516 148.383 128.009 148.201 124.201 C 147.801 116.001 145.101 110.001 139.301 104.201 C 135.201 100.101 129.965 97.683 124.365 96.283 C 110.965 92.883 84.073 87.769 77.373 99.969 L 77.372 99.968 Z"></path>
        <path fill="#FFFFFF" d="M 154.918 135.11 C 154.888 135.098 154.859 135.086 154.83 135.073 C 154.629 134.986 154.433 134.881 154.24 134.764 C 153.854 134.531 153.483 134.251 153.123 133.976 C 152.487 133.49 151.887 133.018 151.304 132.843 C 151.337 132.656 151.356 132.475 151.363 132.299 C 152.524 132.6 153.658 132.975 154.783 133.373 C 154.927 133.424 155.071 133.475 155.215 133.527 C 155.125 134.052 155.026 134.579 154.919 135.11 L 154.918 135.11 Z"></path>
        <path fill="#FFFFFF" d="M 166.689 93.668 C 166.151 93.869 165.523 93.843 164.903 93.807 C 164.685 93.794 164.468 93.78 164.255 93.775 C 165.687 92.818 168.805 92.221 171.136 91.053 C 169.624 92.067 168.163 93.118 166.689 93.668 Z"></path>
        <path fill="#FFFFFF" d="M 173.955 89.369 C 173.534 89.573 173.119 89.802 172.709 90.046 C 173.133 89.685 173.476 89.278 173.705 88.812 C 173.719 89.104 173.771 89.286 173.955 89.369 Z"></path>
        <path fill="#FFFFFF" d="M 105.279 89.427 C 105.278 89.428 105.277 89.429 105.276 89.43 C 105.275 89.431 105.274 89.432 105.273 89.433 C 105.272 89.434 105.272 89.434 105.271 89.435 C 105.274 89.432 105.276 89.43 105.279 89.427 Z"></path>
      </g>
    </g>
  </g>
</svg>
